<svg version="1.1" xmlns="http://www.w3.org/2000/svg" xmlns:xlink="http://www.w3.org/1999/xlink" x="0px" y="0px"
	 viewBox="0 0 100 100" enable-background="new 0 0 100 100" xml:space="preserve">
	<path stroke="#164194" fill="#164194" d="M25.7,50.1c0,0.1,0,0.1,0,0.2c0,0.3,0.1,0.5,0.2,0.8c0.1,0.2,0.2,0.4,0.4,0.6c0.1,0.1,0.1,0.2,0.2,0.3c0,0,0,0,0,0
		c0,0,0,0,0,0l42.8,42.4c1,1,2.6,1,3.6,0c1-1,1-2.6,0-3.6L31.9,50l41-40.6c1-1,1-2.6,0-3.6c-0.5-0.5-1.2-0.8-1.8-0.8
		c-0.7,0-1.3,0.2-1.8,0.7L26.4,48.2C25.9,48.7,25.7,49.4,25.7,50.1z"/>
</svg>