<svg version="1.1" id="Calque_1" xmlns="http://www.w3.org/2000/svg" xmlns:xlink="http://www.w3.org/1999/xlink" x="0px" y="0px"
	 viewBox="0 0 100 100" enable-background="new 0 0 100 100" xml:space="preserve" preserveAspectRatio="xMinYMid" height="16" width="16">
<path stroke="#164194" fill="#164194" d="M73.6,50c0-0.1,0-0.1,0-0.2c0-0.3-0.1-0.5-0.2-0.8c-0.1-0.2-0.2-0.4-0.4-0.6c-0.1-0.1-0.1-0.2-0.2-0.3c0,0,0,0,0,0
	c0,0,0,0,0,0L30.1,5.8c-1-1-2.6-1-3.6,0c-1,1-1,2.6,0,3.6l41,40.6l-41,40.6c-1,1-1,2.6,0,3.6c0.5,0.5,1.2,0.8,1.8,0.8
	c0.7,0,1.3-0.2,1.8-0.7l42.8-42.4C73.4,51.4,73.6,50.7,73.6,50z"/>
</svg>
